<svg xmlns="http://www.w3.org/2000/svg" width="2140" height="757" fill="none"><g fill="#fff" clip-path="url(#a)"><path d="M572.937 266.7c13.437 42.732 24.002 86.758 32.342 131.246 4.078 22.245 7.692 44.628 10.889 67.103 8.34 58.594 11.074 166.902-69.781 176.197-57.919 7.03-109.444-52.905-134.465-97.949-8.711-14.567-14.272-25.573-20.666-38.384-12.186-24.695-22.519-48.882-33.037-71.126l-1.715-3.561c2.039 9.851 4.356 19.608 6.209 29.505 4.449 23.354 9.592 48.373 12.187 74.179 2.548 24.279 3.567 49.621 1.575 75.612-.88 12.949-2.687 26.129-5.329 39.309-13.9 76.259-85.535 143.686-161.386 87.451-37.253-27.609-63.108-70.386-83.079-111.36-64.592-132.449-79.836-289.916-98.416-434.157-1.9-14.614-3.846-35.24 2.594-47.079 7.46-14.197 21.917-12.116 29.145-10.96 89.474 14.012 91.42 135.686 101.058 203.76 6.533 45.922 14.225 91.705 25.299 136.749 7.367 30.014 34.149 188.082 80.114 175.549 3.985-1.063 6.904-4.578 8.387-8.37 7.877-20.348 8.711-46.616 9.174-68.213 1.344-41.066-5.329-84.954-8.526-132.448-3.707-46.616-7.043-93.186-9.777-139.709-1.436-20.21-6.811-63.727 5.051-76.445 5.143-9.203 15.661-11.654 21.5-12.902 24.418-4.717 56.482 6.798 85.071 32.742 69.967 63.449 70.059 158.67 117.6 234.79 25.16 40.281 24.048 4.44 20.48-23.816-5.56-44.119-13.901-89.81-23.4-132.032-18.765-83.659-43.926-165.792-73.441-246.214-7.784-21.273-32.342-69.97-8.572-75.89 8.804-2.127 20.202 7.354 28.635 15.262 32.389 30.846 59.17 76.953 80.948 120.1a855.766 855.766 0 0 1 53.239 130.969l.093.092Zm358.775 341.619c-10.147 36.303-39.756 75.983-79.512 99.753-18.812 11.746-40.867 20.394-65.842 22.984-50.737 5.226-102.957-26.36-124.92-71.82-10.287-21.365-17.886-43.841-19.647-66.363-5.467-44.997 3.198-89.301 22.38-130.46 11.909-23.631 28.311-46.431 51.525-64.42 28.914-19.239 58.476-28.996 93.366-21.042 31.694 7.214 62.785 30.661 75.156 65.068 6.441 17.018 7.09 35.841 4.495 51.703-7.182 48.234-39.756 92.399-83.219 114.227-23.353 11.747-47.169 20.256-74.507 23.956.139.462.463.786.649 1.11 1.621 2.913 3.197 5.642 5.467 7.723 6.904 10.451 18.025 15.585 28.497 20.903 9.498 3.191 22.38 4.162 36.048 1.11 27.524-5.642 55.835-22.661 79.512-45.599 6.441-5.919 15.939-17.666 24.929-26.684 8.85-9.156 18.209-15.446 25.113-8.833 5.004 4.81 3.058 17.204.464 26.684h.046Zm-211.845-53.182c15.012-9.99 31.832-17.019 46.937-26.869 13.021-8.51 23.724-20.487 31.462-33.575 3.336-5.642 5.931-11.931 5.838-18.498-.185-10.776-7.645-16.834-17.468-19.146-15.8-3.792-30.211 10.729-39.571 21.458-17.051 19.608-27.198 49.483-30.257 78.572.973-.648 2.086-1.295 3.059-1.942Zm585.913-182.533c.23 25.528-3.15 48.928-9.5 72.976-6.77 22.383-14.6 44.72-25.58 65.207-42.26 83.335-120.28 146.414-209.48 169.399-5.93 1.248-13.95 3.376-22.43 5.272-8.66 1.48-18.16 2.543-26.64 2.728-17.329-.832-30.442-5.688-28.542-18.128.231-.833.648-1.48.834-2.128-6.117-2.728-10.982-8.416-14.596-13.087-18.163-24.279-27.245-55.495-34.659-83.752-7.413-27.423-12.464-55.078-15.661-83.335-5.699-52.951-5.514-106.967-5.931-160.334 0-62.432.232-125.096.417-187.343-.649-35.239-1.251-71.959-6.997-106.967-1.251-8.232-2.316-19.84 4.866-26.175 8.247-7.584 22.843-5.92 30.21-4.856 25.16 3.607 51.571 18.129 68.479 39.864 23.45 29.968 21.37 63.727 19.05 97.903-6.77 93.463-11.82 165.375-12.05 166.67-.23 5.041-.23 10.128-.65 15.169.42-.416.65-.832.84-1.064 11.4-13.735 22.19-24.88 34.47-36.719 12.28-11.191 24.93-21.088 38.04-29.135 47.36-29.135 111.81-40.095 159.81-5.503 14.6 10.544 27.71 24.279 35.96 40.095 16.91 30.569 18.81 57.576 19.64 83.104l.1.139Zm-136.14-37.968c-11.39 3.376-25.99 13.087-38.69 25.528-27.24 26.591-50.5 61.83-65.93 98.319-17.33 41.158-25.81 89.023-19.04 131.847 1.25 10.128 3.38 23.816-2.55 32.464-1.25 1.665-2.97 2.96-4.45 4.209 24.32-15.4 48.19-31.216 67.65-49.807 41.84-39.864 75.48-89.255 91.09-145.351 2.13-7.168 4.64-19.192 6.35-32.28 4.22-33.944 2.13-75.936-34.47-64.975l.04.046Zm264.67 47.217c-5.65 48.743-10.01 86.433-10.1 87.035-5.7 55.449-.18 111.036-.18 166.994.27 7.353 4.17 24.741-17.29 25.99-7.87.416-14.08-3.145-18.35-6.104-16.4-11.469-24.88-27.794-32.01-42.732-6.91-14.475-11.96-29.366-15.16-44.673-5.88-28.811-6.39-58.409-7.22-87.775-1.12-34.222.46-68.583.04-102.897-.23-19.285-.55-39.541-5.19-59.241-.97-4.671-1.76-11.192 4.5-14.198 7.23-3.653 19.92-1.618 26.27-.601 21.55 3.653 44.25 13.226 58.8 25.759 20.02 17.203 17.93 34.546 15.85 52.489l.04-.046Zm2.27-187.851c-2.96 12.347-7.87 23.955-10.75 36.349-3.24 13.92-5.7 28.21-11.72 41.298-.7 2.22.51 7.815-20.8 5.78-7.84-.786-13.44-2.497-17.2-3.838-14.5-5.133-20.71-10.683-26.04-15.677-5.14-4.856-8.66-9.619-10.51-14.29-3.39-8.833-2.18-17.435-2.27-26.083-.19-10.082 1.11-20.071-.7-30.245-1.44-7.815-14.41-19.608-1.67-22.059 6.77-1.295 15.29.508 22.15 1.11 21.78 1.942 45.18 5.78 60.65 10.359 21.23 6.243 20.25 11.746 18.91 17.342l-.05-.046Zm124.23 159.641c-11.49 49.992 37.07 73.439 68.9 103.961 11.81 11.423 24.05 23.678 36.09 39.355 11.08 13.689 27.02 40.65 29.33 66.733 10.85 79.127-79.83 149.559-154.06 124.448-27.34-9.157-48.65-30.384-58.89-54.108-6.12-12.116-12.38-35.147-8.16-53.275 3.66-18.36 14.46-28.673 25.07-22.291 7.97 4.671 11.44 16.464 15.75 23.956 7.69 14.798 18.07 26.221 29.06 31.724 18.3 9.573 36.92.787 48.46-14.845 4.4-6.012 8.02-13.087 7.6-20.533-1.3-22.845-36.84-46.292-52.4-59.75-21.5-18.59-43.65-36.719-62.28-58.269-41.89-48.512-50.13-118.251-14.78-173.192 15.85-23.585 39.01-41.343 63.9-51.564 56.57-23.354 121.35-10.22 171.21 24.372 5.6 4.393 12.23 10.035 17.65 16.325 5.14 6.382 8.2 13.827 8.62 20.255 2.22 36.673-79.51 37.645-102.26 39.494-14.65 1.203-64.23-1.988-68.72 17.25l-.09-.046Z"/><path d="M1763.06 453.395c-7.97 34.685 25.72 50.917 47.77 72.098 8.2 7.908 16.68 16.417 25.02 27.285 7.65 9.48 18.72 28.163 20.35 46.292 7.5 54.894-55.38 103.73-106.9 86.341-18.95-6.382-33.73-21.088-40.87-37.552-4.26-8.416-8.57-24.371-5.65-36.95 2.55-12.718 10.01-19.886 17.37-15.446 5.57 3.237 7.93 11.423 10.94 16.602 5.33 10.267 12.56 18.175 20.16 22.013 12.69 6.66 25.62.555 33.64-10.313 3.05-4.162 5.56-9.064 5.28-14.243-.88-15.863-25.53-32.141-36.33-41.437-14.92-12.903-30.26-25.481-43.18-40.419-29.06-33.667-34.8-82.04-10.24-120.147 10.98-16.371 27.06-28.672 44.29-35.794 39.25-16.186 84.19-7.076 118.76 16.926 3.89 3.052 8.48 6.983 12.23 11.33 3.57 4.44 5.7 9.573 5.98 14.059 1.53 25.435-55.14 26.083-70.94 27.377-10.15.833-44.53-1.387-47.63 11.978h-.05Z"/><path d="M2130.92 499.179c-1.72 21.597-6.35 43.194-14.37 64.559-27.06 75.751-116.85 132.587-193.03 84.307-51.52-32.742-68.11-99.383-67.09-156.82.23-12.394 2.27-29.921 10.7-37.645 9.55-9.387 20.99-3.93 26.74-1.433 19.6 9.203 35.86 31.216 49.16 53.321 12.69 20.996 20.85 74.641 56.11 63.404 7-2.22 13.07-6.66 18.16-11.978 28.78-30.014 33.5-83.197 26.69-122.089-4.45-23.817-16.21-45.784-27.06-51.703-7.92-4.856-16.77-7.307-22.28-7.215-5.33.093-10.48 1.758-16.92 7.03-12.92 10.451-21.59 32.973-19.09 49.252.7 4.578 3.71 12.07 6.3 19.608 2.32 7.538 3.94 15.585-4.3 22.059-6.12 4.763-16.5 1.989-23.91-2.358-14.32-7.955-27.34-24.002-32.21-44.535-5.19-20.487-2.5-43.055 5.29-63.033 7.5-19.331 20.94-38.015 41.7-51.195 20.94-13.411 49.76-16.926 72.88-11.33 44.67 10.035 76.46 43.934 92.63 85.648 14.5 37.366 16.82 75.01 13.85 112.053l.05.093ZM538.695 122.09s75.342 241.681 102.031 263.37c22.148 18.036-10.935-88.283-22.751-124.771-2.548-7.816-5.607-15.354-9.313-22.707-18.813-37.413-80.439-158.947-77.519-138.692l7.552 22.753v.047ZM18.349 269.198s-7.09-114.551-14.596-127.13c-6.255-10.452-3.15 39.956-1.9 57.298a97.97 97.97 0 0 0 1.437 11.007c3.568 18.545 15.337 78.849 15.893 69.646l-.834-10.821ZM1055.75 68.63c.51 1.387-.32 1.85-.55 3.329-3.02 20.95-19.47 170.648-8.67 190.672 8.48 15.677 18.07-40.095 22.66-71.727a242.69 242.69 0 0 0 2.5-39.31c-.55-35.979-2.41-115.013-11.35-106.041-4.63 4.624-5.79 19.839-4.63 23.123l.04-.047Zm280.42 556.338c-.92 2.22-1.29 4.486-1.06 6.659.97 9.018-2.88 27.887 4.49 30.661 3.62 1.342 23.91 2.914 26.18-1.202 4.73-8.694-7.18-16.51-14.45-24.094-6.54-6.844-14.23-14.29-15.06-12.255l-.1.231Zm159.95-117.789a81.507 81.507 0 0 0 8.58 12.209c13.25 15.77 36.88 50.64 45.82 53.091 4.4 1.202 20.62-2.821 16.45-10.914-8.85-17.111-27.99-26.962-43.6-38.061-14.09-9.989-29.75-20.625-27.52-16.787l.27.462Z"/><path d="M1806.71 348.926c.42.74 3.75.925 6.81.647 2.83-.231 5.24.786 7.14 2.405.83.694 2.08 1.249 3.93 1.295 14.04.508 47.5 8.925 60.19 40.974 9.87 24.88 6.91-6.151-.92-22.522-4.27-8.926-27.62-32.696-55.28-30.985-16.4 1.018-23.82 4.763-21.87 8.139v.047ZM932.314 641.293c-.973.462-1.899 4.069-2.224 7.399-.324 3.052-2.038 5.642-4.355 7.769-1.02.925-1.9 2.266-2.363 4.255-3.614 15.215-20.712 51.518-60.792 65.484-31.138 10.822 5.699 7.446 26.457-1.156 11.352-4.671 44.111-30.152 48.05-60.073 2.363-17.759-.417-25.806-4.773-23.678ZM2049.79 293.847c.6 1.017 3.56 2.497 6.16 3.422 2.36.832 4.82 2.914 6.99 5.411.98 1.11 2.23 2.173 3.85 2.96 12.42 6.104 44.3 28.533 65.38 68.212 16.36 30.8 4.08-3.931-7.83-24.695-6.53-11.376-34.34-46.338-57.97-55.449-13.99-5.411-19.32-4.301-16.58.139Zm-23.22 182.856c-.69.416-.74 3.422-.42 6.243.33 2.59-.55 4.764-1.99 6.567-.6.787-1.06 1.896-1.06 3.608-.1 12.856-6.86 43.517-35.78 55.078-22.42 8.972 5.84 6.336 20.53-.786 8.06-3.884 29.1-25.204 26.74-50.593-1.39-15.03-5.05-21.874-8.07-20.071l.05-.046Z"/></g><defs><clipPath id="a"><path fill="#fff" d="M0 0h2140v757H0z"/></clipPath></defs></svg>